<?xml version="1.0" standalone="no"?>
<!DOCTYPE svg PUBLIC "-//W3C//DTD SVG 20010904//EN"
 "http://www.w3.org/TR/2001/REC-SVG-20010904/DTD/svg10.dtd">
<svg version="1.0" xmlns="http://www.w3.org/2000/svg"
 width="920.000000pt" height="920.000000pt" viewBox="0 0 920.000000 920.000000"
 preserveAspectRatio="xMidYMid meet">
<metadata>
Created by potrace 1.11, written by Peter Selinger 2001-2013
</metadata>
<g transform="translate(0.000000,920.000000) scale(0.100000,-0.100000)"
fill="#000000" stroke="none">
<path d="M2250 8569 c0 -6 -9 -24 -21 -40 -12 -17 -18 -37 -15 -46 5 -12 4
-13 -7 -4 -11 9 -16 3 -27 -29 -7 -22 -17 -40 -22 -40 -4 0 -8 -6 -8 -13 0 -7
-8 -22 -18 -33 -10 -10 -20 -23 -21 -29 -7 -20 -26 -60 -31 -65 -15 -15 -33
-43 -24 -37 6 3 11 0 11 -8 0 -8 -5 -11 -10 -8 -5 3 -13 -1 -18 -8 -12 -20
-11 -31 3 -23 7 4 8 3 4 -5 -4 -6 -11 -9 -15 -7 -4 3 -14 -7 -22 -22 -7 -15
-19 -35 -27 -44 -8 -9 -11 -22 -6 -29 4 -7 3 -10 -3 -6 -5 3 -20 -15 -34 -41
-13 -26 -28 -50 -34 -54 -5 -4 -6 -8 -1 -8 5 0 -1 -11 -13 -24 -13 -14 -20
-29 -17 -34 3 -6 -1 -13 -10 -16 -8 -3 -12 -10 -9 -16 3 -5 2 -10 -2 -10 -10
0 -45 -62 -41 -72 2 -4 -6 -13 -16 -21 -12 -9 -16 -19 -11 -28 5 -8 5 -11 0
-7 -13 12 -74 -95 -63 -109 6 -7 4 -14 -3 -19 -8 -5 -9 -3 -4 6 5 8 3 11 -6 8
-17 -6 -19 -28 -5 -48 9 -13 9 -13 -6 -2 -14 11 -18 10 -28 -8 -6 -11 -8 -25
-5 -30 3 -6 -1 -10 -10 -10 -9 0 -14 -4 -11 -9 4 -5 2 -11 -4 -13 -5 -1 -11
-13 -13 -25 -2 -12 -7 -26 -12 -30 -4 -5 -5 -1 0 7 5 10 5 12 -2 5 -6 -5 -23
-35 -39 -65 -16 -30 -31 -57 -34 -60 -3 -3 -11 -16 -18 -30 -15 -31 -43 -80
-65 -114 -10 -14 -15 -26 -12 -26 4 0 -1 -7 -9 -16 -9 -8 -16 -22 -16 -30 0
-8 -5 -14 -11 -14 -6 0 -9 -7 -5 -15 3 -8 0 -14 -7 -12 -7 1 -11 -4 -10 -10 2
-7 -2 -13 -8 -13 -5 0 -7 -4 -4 -10 3 -5 1 -10 -6 -10 -7 0 -10 -3 -6 -6 3 -3
-3 -16 -14 -27 -14 -16 -16 -23 -7 -29 9 -5 8 -8 -5 -8 -10 0 -16 -4 -13 -9 3
-5 -1 -12 -10 -15 -8 -3 -12 -10 -9 -16 3 -5 3 -10 -2 -10 -4 0 -14 -15 -22
-32 -8 -18 -18 -35 -22 -38 -4 -3 -9 -12 -11 -20 -2 -8 -10 -22 -18 -31 -8
-10 -26 -39 -40 -66 -14 -26 -29 -51 -34 -54 -4 -4 -2 -9 5 -12 9 -4 8 -6 -5
-6 -12 -1 -16 -6 -12 -16 3 -9 0 -15 -8 -15 -11 0 -24 -23 -24 -46 -1 -3 -10
-14 -22 -24 -12 -10 -21 -21 -20 -24 0 -6 -25 -56 -47 -91 -7 -11 -17 -32 -24
-47 -6 -16 -15 -28 -21 -28 -5 0 -6 -4 -3 -10 3 -5 1 -10 -5 -10 -6 0 -9 -4
-6 -9 4 -5 3 -11 -2 -13 -10 -4 -74 -108 -66 -108 3 0 -2 -7 -10 -16 -9 -8
-16 -21 -16 -28 0 -7 -8 -21 -18 -32 -18 -20 -59 -95 -55 -100 1 -2 -9 -16
-22 -30 -14 -15 -25 -35 -25 -45 0 -11 -4 -19 -9 -19 -5 0 -14 -13 -21 -30 -7
-16 -17 -30 -22 -30 -6 0 -8 -7 -4 -15 3 -8 1 -15 -5 -15 -6 0 -7 -4 -4 -10 3
-5 1 -10 -4 -10 -6 0 -18 -15 -26 -32 -20 -42 -37 -72 -54 -92 -7 -9 -11 -23
-7 -31 3 -9 2 -13 -4 -10 -9 6 -36 -34 -32 -47 1 -5 -3 -8 -9 -8 -6 0 -8 -7
-5 -17 4 -10 4 -14 0 -10 -10 10 -76 -102 -68 -115 4 -6 3 -8 -2 -5 -5 3 -17
-8 -27 -24 -10 -18 -12 -27 -4 -23 6 4 2 -3 -11 -16 -13 -12 -21 -29 -18 -37
3 -8 2 -12 -3 -9 -11 7 -38 -32 -47 -68 -3 -15 -11 -23 -17 -19 -6 4 -8 0 -4
-10 3 -9 0 -18 -9 -21 -9 -3 -12 -10 -9 -16 3 -5 2 -10 -3 -10 -13 0 -43 -70
-36 -82 4 -6 2 -8 -3 -5 -14 9 -37 -19 -27 -34 4 -7 3 -9 -3 -6 -9 6 -24 -15
-24 -33 0 -3 -7 -13 -16 -22 -14 -15 -14 -20 -2 -35 13 -16 12 -17 -3 -5 -14
11 -18 10 -28 -7 -6 -12 -8 -21 -5 -21 3 0 -5 -15 -19 -33 -15 -19 -26 -37
-26 -41 0 -4 -16 -31 -35 -61 -23 -34 -33 -59 -29 -71 5 -16 4 -16 -5 -4 -6 8
-11 12 -12 8 -1 -5 -2 -11 -3 -15 -1 -5 -11 -24 -22 -43 -33 -55 -32 -169 3
-235 15 -27 33 -62 40 -77 8 -16 19 -28 25 -28 6 0 8 -3 5 -6 -4 -4 2 -19 13
-34 11 -15 17 -30 13 -34 -12 -12 13 -6 27 7 12 10 12 9 2 -4 -14 -19 -4 -62
14 -55 8 3 11 0 7 -10 -3 -7 0 -14 6 -14 6 0 8 -7 5 -15 -4 -8 -1 -15 7 -15 7
0 10 -3 6 -6 -8 -9 16 -33 27 -26 5 3 6 0 2 -6 -7 -12 20 -70 39 -84 6 -4 6
-8 2 -8 -5 0 -1 -7 7 -16 9 -8 16 -22 16 -30 0 -8 5 -14 10 -14 6 0 10 -7 10
-15 0 -8 5 -15 11 -15 5 0 7 -4 4 -10 -3 -5 -1 -10 5 -10 6 0 8 -4 5 -10 -3
-6 -2 -10 3 -10 5 0 12 -10 16 -22 5 -18 8 -20 15 -9 6 9 11 10 15 2 4 -6 2
-11 -3 -11 -16 0 -13 -16 4 -34 9 -8 16 -19 17 -23 4 -25 11 -43 18 -43 7 0
27 -38 28 -54 0 -5 4 -12 9 -15 5 -3 14 -17 21 -31 41 -80 43 -82 60 -68 15
12 16 11 4 -4 -14 -17 -7 -37 25 -78 6 -8 13 -22 15 -30 2 -8 5 -17 8 -20 12
-12 69 -110 75 -129 3 -12 11 -21 16 -21 5 0 9 -4 9 -10 0 -9 58 -110 69 -120
4 -3 7 -12 9 -20 2 -8 8 -17 13 -18 5 -2 9 -11 9 -19 0 -10 6 -13 16 -9 13 5
14 4 6 -7 -9 -10 -5 -22 13 -50 14 -20 25 -41 25 -46 0 -6 5 -11 10 -11 6 0
10 -7 10 -16 0 -12 6 -15 23 -11 19 5 19 4 5 -6 -15 -10 -15 -13 0 -36 9 -14
25 -37 36 -50 12 -13 15 -21 8 -17 -11 7 -11 4 0 -13 7 -12 18 -19 24 -17 6 2
9 -5 7 -17 -3 -13 4 -31 16 -43 11 -12 17 -25 14 -28 -4 -3 1 -6 11 -6 9 0 14
-4 11 -10 -6 -10 43 -102 57 -108 4 -2 8 -10 8 -18 0 -8 5 -14 11 -14 6 0 9
-6 6 -13 -3 -8 3 -20 13 -27 11 -8 17 -17 14 -21 -2 -4 3 -15 12 -23 8 -9 12
-16 7 -16 -4 0 -3 -4 2 -8 10 -7 26 -33 57 -92 10 -19 24 -44 31 -54 54 -86
76 -126 70 -126 -4 0 -3 -4 3 -8 6 -4 24 -32 39 -62 16 -30 34 -62 41 -70 6
-8 24 -39 39 -68 16 -30 34 -56 42 -59 12 -5 12 -7 1 -14 -10 -7 -9 -9 4 -9 9
0 20 -5 24 -12 4 -7 3 -8 -5 -4 -8 6 -8 1 1 -18 6 -14 16 -26 21 -26 6 0 8 -3
4 -6 -3 -4 8 -29 26 -58 18 -28 39 -64 47 -81 8 -16 18 -32 21 -35 3 -3 16
-25 30 -50 13 -25 26 -47 29 -50 3 -3 16 -26 29 -53 13 -26 28 -47 33 -47 5 0
6 -4 3 -10 -3 -5 -1 -10 5 -10 6 0 9 -4 6 -9 -3 -5 0 -14 8 -20 8 -7 17 -23
20 -37 4 -14 11 -22 16 -19 5 3 10 -5 12 -17 2 -13 8 -23 15 -23 6 0 15 -4 20
-9 5 -5 3 -6 -4 -2 -17 9 -16 6 3 -32 8 -18 20 -32 25 -32 5 0 8 -3 7 -7 -4
-15 14 -53 24 -53 6 0 9 -3 6 -6 -4 -3 4 -21 17 -40 13 -19 30 -48 37 -64 7
-17 17 -30 21 -30 5 0 5 -5 2 -10 -3 -6 1 -13 9 -16 9 -3 16 -15 16 -25 0 -10
3 -19 8 -19 4 0 13 -12 19 -27 27 -59 53 -94 66 -87 8 5 7 2 -2 -9 -9 -11 -10
-17 -2 -17 6 0 11 -7 11 -15 0 -8 5 -15 10 -15 6 0 9 -5 8 -12 -2 -7 2 -12 9
-13 6 0 15 -4 20 -9 5 -5 3 -6 -4 -2 -8 4 -13 1 -13 -8 0 -19 11 -20 30 -3 12
10 12 9 2 -5 -11 -13 -8 -25 14 -67 15 -27 31 -48 36 -45 5 3 8 2 7 -3 -5 -27
2 -45 16 -40 8 4 17 1 21 -5 4 -7 3 -8 -4 -4 -7 4 -12 1 -12 -8 0 -14 228 -16
2348 -16 2307 0 2347 0 2359 19 10 15 10 21 0 24 -7 3 -5 6 4 6 9 1 20 8 23
17 9 22 8 26 -6 18 -7 -5 -8 -3 -4 5 5 7 11 10 14 7 3 -3 15 9 28 27 16 23 19
36 12 45 -8 9 -7 11 6 6 19 -7 21 6 4 26 -11 12 -10 12 4 1 15 -11 19 -8 32
23 8 20 15 39 15 43 -1 3 6 10 15 15 9 5 14 13 11 19 -4 5 1 12 9 15 9 3 14
10 11 14 -3 5 -1 11 5 15 9 6 44 67 51 90 2 6 11 19 21 30 10 10 16 25 13 33
-2 7 -1 11 3 8 8 -5 43 56 41 70 0 4 4 10 9 13 12 8 64 91 66 107 1 7 9 21 17
31 26 30 34 47 18 39 -8 -4 -5 0 6 9 11 9 19 21 17 26 -1 5 3 9 9 9 5 0 7 5 4
10 -3 6 -2 10 2 10 5 0 17 17 28 37 10 21 25 46 33 55 8 9 11 23 6 30 -4 7 -3
10 1 5 9 -8 65 87 65 110 0 8 4 12 8 9 12 -7 44 63 36 76 -4 6 -3 8 3 5 9 -6
37 19 41 38 3 17 36 79 49 93 7 7 20 30 30 50 9 20 23 43 30 50 16 17 17 46 1
36 -7 -4 -8 -3 -4 4 4 6 14 8 23 5 11 -4 14 -3 9 5 -4 7 -2 12 4 12 7 0 9 7 6
17 -4 10 -4 14 0 10 10 -10 46 52 38 66 -4 7 -4 9 1 5 7 -7 125 184 125 202 0
4 7 13 15 20 9 7 13 15 11 18 -3 2 2 11 10 20 9 8 13 23 11 33 -3 10 0 16 7
13 6 -2 23 20 38 50 21 42 24 56 15 67 -10 11 -9 11 5 0 15 -11 19 -9 30 15 7
16 18 35 25 42 7 8 11 18 8 23 -4 5 -2 9 4 9 6 0 13 11 17 25 3 14 10 25 14
25 4 0 11 11 14 25 4 14 11 25 17 25 6 0 7 5 4 10 -3 5 -1 10 4 10 6 0 11 4
11 9 0 5 20 42 45 84 30 49 43 81 39 93 -4 14 -3 15 4 6 7 -10 12 -8 24 10 8
13 14 31 12 40 -1 11 3 15 14 11 9 -4 13 -2 9 4 -4 6 3 22 14 37 11 14 18 26
14 26 -3 0 3 10 15 22 11 12 20 27 20 33 0 6 11 27 25 46 13 20 21 39 18 43
-4 3 -2 6 4 6 10 0 38 49 35 63 -1 4 3 7 9 7 6 0 8 9 4 23 -5 17 -4 19 4 7 10
-13 15 -8 12 13 0 4 4 7 10 7 5 0 7 5 4 10 -3 6 -1 10 5 10 7 0 9 7 6 16 -3 8
-2 13 3 9 5 -3 28 29 51 70 36 66 40 78 28 93 -12 15 -11 16 5 3 20 -16 27
-12 30 17 0 11 5 18 9 16 8 -5 12 10 9 34 -1 7 4 11 11 10 6 -2 12 2 13 7 0 6
13 29 28 52 15 24 27 46 27 49 0 4 12 22 26 41 14 19 23 41 20 49 -3 8 -2 13
3 10 11 -7 42 55 34 68 -3 5 -1 6 4 3 14 -9 56 61 49 80 -3 8 -2 11 3 8 16
-10 23 15 9 33 -11 15 -11 15 3 5 18 -15 29 -8 29 18 0 9 6 19 14 22 9 4 13
16 12 31 -3 20 0 24 9 16 9 -8 14 -4 18 12 4 12 1 26 -6 31 -9 6 -8 7 3 4 9
-2 25 12 43 39 29 48 33 59 15 48 -7 -4 -8 -3 -4 5 4 6 11 9 16 6 5 -3 12 5
16 17 3 12 15 30 24 41 10 10 17 28 15 38 -2 11 -1 18 3 15 4 -2 13 2 20 10 7
8 9 14 5 14 -4 0 -3 4 2 8 6 4 16 18 23 31 11 19 11 22 0 16 -7 -3 -6 -1 3 7
12 10 16 33 17 101 1 53 -3 87 -9 87 -6 0 -7 5 -4 10 3 6 1 10 -4 10 -6 0 -11
-5 -11 -11 0 -5 -5 -7 -11 -3 -8 4 -7 9 2 15 11 6 11 12 0 33 -8 14 -19 23
-24 19 -6 -3 -7 -1 -4 4 4 6 -13 44 -38 85 -25 42 -45 80 -45 87 0 6 -4 11 -9
11 -5 0 -14 12 -20 28 -19 44 -40 77 -50 77 -5 0 -13 4 -18 9 -5 5 -2 6 6 1 7
-4 12 -4 9 1 -22 49 -35 71 -48 82 -13 12 -13 13 0 7 10 -4 9 -2 -2 8 -10 8
-18 17 -18 21 0 18 -75 134 -83 129 -6 -3 -7 -1 -4 4 7 11 -40 105 -55 111 -4
2 -8 10 -8 18 0 9 -4 12 -10 9 -5 -3 -7 0 -4 8 3 8 -2 21 -10 30 -8 8 -13 17
-10 19 2 3 -2 11 -11 18 -8 7 -15 18 -15 25 0 8 -3 15 -7 17 -5 2 -16 21 -26
42 -15 32 -21 37 -29 25 -8 -11 -9 -11 -4 3 7 22 -22 80 -36 71 -7 -4 -9 0 -5
10 4 10 2 17 -4 17 -6 0 -9 6 -6 14 3 8 -1 17 -9 20 -8 3 -14 12 -14 21 0 8
-5 15 -11 15 -5 0 -8 4 -4 9 3 5 1 12 -5 16 -6 3 -17 22 -25 41 -8 19 -19 34
-24 34 -6 0 -11 9 -11 20 0 11 -5 20 -11 20 -5 0 -7 5 -4 10 3 6 1 10 -4 10
-6 0 -10 3 -9 8 5 17 -24 53 -39 48 -13 -5 -14 -4 -4 8 10 12 9 20 -4 40 -10
14 -21 24 -25 21 -5 -3 -12 0 -16 6 -4 8 -3 9 4 5 19 -11 15 0 -15 53 -2 2 -9
-1 -16 -7 -10 -9 -14 -8 -14 3 0 8 4 12 9 9 4 -3 8 2 8 10 0 9 -4 16 -10 16
-5 0 -9 3 -8 8 3 15 -15 42 -25 35 -6 -4 -7 -1 -2 7 5 8 2 17 -6 24 -8 6 -14
18 -14 26 0 9 -8 14 -19 13 -13 -1 -15 2 -8 9 8 8 3 22 -14 47 -13 19 -24 40
-24 45 0 5 -11 24 -25 42 -14 18 -25 38 -25 44 0 6 -4 8 -10 5 -5 -3 -7 0 -4
9 3 8 -4 24 -15 35 -12 12 -21 23 -21 26 0 3 0 10 0 16 0 5 -5 7 -12 3 -7 -4
-8 -3 -4 4 9 14 -18 55 -28 44 -4 -4 -6 -2 -4 3 4 14 -23 75 -33 75 -5 0 -9 8
-9 19 0 10 -6 24 -14 30 -8 7 -17 23 -20 36 -4 14 -11 25 -16 25 -6 0 -10 5
-10 10 0 6 -12 29 -27 53 -15 23 -28 44 -28 47 -1 5 -21 42 -42 75 -7 11 -16
28 -19 38 -3 9 -10 17 -15 17 -5 0 -9 9 -9 21 0 16 -4 19 -22 14 -15 -4 -19
-3 -10 3 10 7 11 14 1 35 -7 15 -16 27 -21 27 -4 0 -7 3 -6 8 2 4 -6 23 -18
42 -11 19 -20 37 -20 40 0 3 -14 26 -32 52 -18 26 -32 51 -32 57 0 6 -5 11
-11 11 -5 0 -7 5 -4 10 3 6 2 10 -4 10 -5 0 -12 14 -16 30 -6 29 -19 39 -28
23 -2 -5 -2 -2 -1 5 4 15 -65 142 -77 142 -5 0 -8 3 -7 8 3 14 -22 63 -30 58
-5 -3 -9 0 -9 7 0 20 -35 87 -45 87 -5 0 -7 4 -4 9 3 4 -3 19 -14 31 -11 13
-20 29 -20 36 0 7 -8 18 -17 23 -10 6 -13 11 -8 11 6 0 4 4 -3 9 -7 4 -14 14
-16 22 -1 8 -18 41 -37 74 -19 33 -38 67 -42 75 -4 8 -18 33 -32 55 -14 22
-28 47 -32 55 -4 8 -9 17 -12 20 -4 3 -21 32 -38 65 -18 33 -38 59 -44 57 -6
-1 -9 3 -6 10 5 15 -48 112 -63 114 -21 3 -22 4 -10 19 7 8 8 15 3 15 -5 0
-17 18 -27 40 -10 22 -22 40 -27 40 -5 0 -8 3 -7 8 0 4 -2 15 -6 25 -8 16
-127 17 -2357 17 -1685 0 -2349 -3 -2349 -11z m-105 -249 c3 -5 1 -10 -4 -10
-6 0 -11 5 -11 10 0 6 2 10 4 10 3 0 8 -4 11 -10z m-191 -318 c3 -5 -1 -9 -9
-9 -8 0 -12 4 -9 9 3 4 7 8 9 8 2 0 6 -4 9 -8z m5490 -328 c3 -8 2 -12 -4 -9
-6 3 -10 10 -10 16 0 14 7 11 14 -7z m106 -168 c0 -3 -4 -8 -10 -11 -5 -3 -10
-1 -10 4 0 6 5 11 10 11 6 0 10 -2 10 -4z m355 -615 c3 -5 2 -12 -3 -15 -5 -3
-9 1 -9 9 0 17 3 19 12 6z m-6755 -291 c0 -5 -2 -10 -4 -10 -3 0 -8 5 -11 10
-3 6 -1 10 4 10 6 0 11 -4 11 -10z m-55 -80 c-3 -5 -12 -10 -18 -10 -7 0 -6 4
3 10 19 12 23 12 15 0z m-265 -460 c0 -5 -5 -10 -11 -10 -5 0 -7 5 -4 10 3 6
8 10 11 10 2 0 4 -4 4 -10z m7556 -2 c3 -4 -1 -5 -10 -4 -8 1 -18 5 -22 8 -3
4 1 5 10 4 8 -1 18 -5 22 -8z m33 -62 c9 -11 9 -16 -1 -22 -7 -4 -10 -4 -6 1
4 4 3 14 -3 22 -6 7 -9 13 -6 13 2 0 10 -6 16 -14z m-7879 -470 c0 -2 -8 -10
-17 -17 -16 -13 -17 -12 -4 4 13 16 21 21 21 13z m8464 -544 c3 -5 -1 -9 -9
-9 -8 0 -12 4 -9 9 3 4 7 8 9 8 2 0 6 -4 9 -8z m-8334 -1556 c0 -3 -4 -8 -10
-11 -5 -3 -10 -1 -10 4 0 6 5 11 10 11 6 0 10 -2 10 -4z m419 -750 c-3 -3 -11
5 -18 17 -13 21 -12 21 5 5 10 -10 16 -20 13 -22z m141 -216 c0 -5 -5 -10 -11
-10 -5 0 -7 5 -4 10 3 6 8 10 11 10 2 0 4 -4 4 -10z m6537 -375 c0 -8 -4 -12
-9 -9 -5 3 -6 10 -3 15 9 13 12 11 12 -6z m-6063 -451 c3 -8 2 -12 -4 -9 -6 3
-10 10 -10 16 0 14 7 11 14 -7z m140 -240 c3 -8 2 -12 -4 -9 -6 3 -10 10 -10
16 0 14 7 11 14 -7z m71 -134 c3 -6 -1 -7 -9 -4 -18 7 -21 14 -7 14 6 0 13 -4
16 -10z m5385 -14 c0 -2 -8 -10 -17 -17 -16 -13 -17 -12 -4 4 13 16 21 21 21
13z m-90 -150 c0 -2 -8 -10 -17 -17 -16 -13 -17 -12 -4 4 13 16 21 21 21 13z
m-40 -70 c0 -2 -7 -7 -16 -10 -8 -3 -12 -2 -9 4 6 10 25 14 25 6z m-150 -260
c0 -2 -8 -10 -17 -17 -16 -13 -17 -12 -4 4 13 16 21 21 21 13z"/>
</g>
</svg>
