<?xml version="1.0" encoding="UTF-8" standalone="no"?>
<!-- Created with Inkscape (http://www.inkscape.org/) -->

<svg
   xmlns:dc="http://purl.org/dc/elements/1.1/"
   xmlns:cc="http://creativecommons.org/ns#"
   xmlns:rdf="http://www.w3.org/1999/02/22-rdf-syntax-ns#"
   xmlns:svg="http://www.w3.org/2000/svg"
   xmlns="http://www.w3.org/2000/svg"
   xmlns:sodipodi="http://sodipodi.sourceforge.net/DTD/sodipodi-0.dtd"
   xmlns:inkscape="http://www.inkscape.org/namespaces/inkscape"
   width="100mm"
   height="100mm"
   viewBox="0 0 354.33071 354.33073"
   id="svg5068"
   version="1.1"
   inkscape:version="0.91 r13725"
   sodipodi:docname="forest_(palm_tree).svg">
  <defs
     id="defs5070" />
  <sodipodi:namedview
     id="base"
     pagecolor="#ffffff"
     bordercolor="#666666"
     borderopacity="1.0"
     inkscape:pageopacity="0.0"
     inkscape:pageshadow="2"
     inkscape:zoom="0.7"
     inkscape:cx="-79.91601"
     inkscape:cy="33.416532"
     inkscape:document-units="px"
     inkscape:current-layer="g4915"
     showgrid="false"
     inkscape:window-width="1600"
     inkscape:window-height="838"
     inkscape:window-x="-8"
     inkscape:window-y="-8"
     inkscape:window-maximized="1"
     fit-margin-top="0"
     fit-margin-left="0"
     fit-margin-right="0"
     fit-margin-bottom="0" />
  <metadata
     id="metadata5073">
    <rdf:RDF>
      <cc:Work
         rdf:about="">
        <dc:format>image/svg+xml</dc:format>
        <dc:type
           rdf:resource="http://purl.org/dc/dcmitype/StillImage" />
        <dc:title></dc:title>
      </cc:Work>
    </rdf:RDF>
  </metadata>
  <g
     inkscape:label="Capa 1"
     inkscape:groupmode="layer"
     id="layer1"
     transform="translate(-99.904457,-123.97666)">
    <g
       transform="translate(-286.85714,-1655.4285)"
       id="g4915">
      <rect
         style="fill:#ddff55;fill-opacity:1;stroke:#000000;stroke-opacity:1"
         id="rect4156"
         width="354.33072"
         height="354.33072"
         x="387.2616"
         y="1778.9052" />
      <g
         id="g4145"
         transform="matrix(0.91192133,0,0,0.91192133,19.010203,195.57582)">
        <path
           sodipodi:nodetypes="cc"
           inkscape:connector-curvature="0"
           id="path4655-2-4"
           d="m 664.71058,1791.0905 c 0,0 -8.81345,179.4088 0,186.67"
           style="fill:none;fill-rule:evenodd;stroke:#000000;stroke-width:11.94562531;stroke-linecap:round;stroke-linejoin:round;stroke-miterlimit:4;stroke-dasharray:none;stroke-opacity:1" />
        <path
           sodipodi:nodetypes="cccccccc"
           inkscape:connector-curvature="0"
           id="path4184"
           d="m 662.0893,1784.7359 c 1.89404,0.6313 1.71038,2.0112 1.71038,2.0112 -14.28571,17.3215 -19.10714,57.8571 -19.10714,57.8571 0,0 -9.87736,-4.0574 -10.1299,-20.7249 0,0 -14.64721,16.5413 -15.9099,14.8997 0,0 -3.40927,-5.3033 2.65165,-23.2335 0,0 -22.72843,11.743 -24.4962,10.1015 22.47589,-59.0939 65.28111,-40.9112 65.28111,-40.9112 z"
           style="fill:#677821;fill-opacity:1;fill-rule:evenodd;stroke:#677821;stroke-width:1px;stroke-linecap:butt;stroke-linejoin:miter;stroke-opacity:1" />
        <path
           inkscape:connector-curvature="0"
           id="path4188"
           d="m 645.89963,1840.1685 c 1.23471,-8.1949 3.82675,-19.7372 6.16747,-27.4635 3.03133,-10.0059 7.10376,-18.9155 10.99704,-24.0593 1.28964,-1.7038 1.45405,-2.3768 0.80654,-3.3012 -0.22251,-0.3177 -0.36457,-0.6132 -0.31568,-0.6568 0.19974,-0.1778 5.31754,-1.1814 7.79131,-1.5278 3.49518,-0.4897 10.20861,-0.4864 13.52689,0.01 15.8954,2.3602 29.10728,13.8306 37.37699,32.4503 1.81821,4.0938 4.80503,12.539 4.53436,12.8209 -0.0396,0.041 -1.98917,-1.3323 -4.33226,-3.0524 -12.15646,-8.9239 -19.57043,-13.5791 -21.72346,-13.6402 -0.45662,-0.013 -0.87295,0.027 -0.92517,0.089 -0.0522,0.062 0.0473,1.5903 0.22124,3.396 0.66518,6.9068 0.96191,14.9934 0.66477,18.1164 -0.49713,5.225 0.5453,5.9062 -10.73645,-7.0161 -5.39075,-6.1746 -9.87911,-11.2265 -9.97413,-11.2263 -0.095,10e-5 -0.1906,4.7934 -0.21241,10.6516 -0.0387,10.3928 -0.16625,13.3392 -0.57746,13.3392 -0.11108,0 -1.09137,-0.5806 -2.17843,-1.2902 -3.78148,-2.4686 -7.72159,-7.1447 -10.23915,-12.1519 -0.87252,-1.7354 -1.35729,-2.8462 -2.2751,-5.2134 -0.21342,-0.5505 -0.46389,-0.2725 -3.08429,3.4234 -3.46879,4.8925 -7.75123,10.6132 -9.98471,13.3381 -1.78986,2.1837 -5.57202,6.1872 -5.8451,6.1872 -0.0924,0 0.0504,-1.449 0.31719,-3.2199 z"
           style="color:#000000;clip-rule:nonzero;display:inline;overflow:visible;visibility:visible;opacity:1;isolation:auto;mix-blend-mode:normal;color-interpolation:sRGB;color-interpolation-filters:linearRGB;solid-color:#000000;solid-opacity:1;fill:#88aa00;fill-opacity:1;fill-rule:nonzero;stroke:#88aa00;stroke-width:1;stroke-linecap:butt;stroke-linejoin:round;stroke-miterlimit:4;stroke-dasharray:none;stroke-dashoffset:0;stroke-opacity:1;color-rendering:auto;image-rendering:auto;shape-rendering:auto;text-rendering:auto;enable-background:accumulate" />
        <path
           sodipodi:nodetypes="cc"
           inkscape:connector-curvature="0"
           id="path4655-2-4-2"
           d="m 536.28335,1836.3505 c 0,0 -8.81345,179.4089 0,186.67"
           style="fill:none;fill-rule:evenodd;stroke:#000000;stroke-width:11.94562531;stroke-linecap:round;stroke-linejoin:round;stroke-miterlimit:4;stroke-dasharray:none;stroke-opacity:1" />
        <path
           sodipodi:nodetypes="cccccccc"
           inkscape:connector-curvature="0"
           id="path4184-4"
           d="m 533.66207,1829.9959 c 1.89404,0.6313 1.71038,2.0112 1.71038,2.0112 -14.28571,17.3215 -19.10714,57.8571 -19.10714,57.8571 0,0 -9.87736,-4.0574 -10.1299,-20.7249 0,0 -14.64721,16.5413 -15.9099,14.8997 0,0 -3.40927,-5.3033 2.65165,-23.2335 0,0 -22.72844,11.743 -24.49621,10.1015 22.4759,-59.0939 65.28112,-40.9112 65.28112,-40.9112 z"
           style="fill:#677821;fill-opacity:1;fill-rule:evenodd;stroke:#677821;stroke-width:1px;stroke-linecap:butt;stroke-linejoin:miter;stroke-opacity:1" />
        <path
           inkscape:connector-curvature="0"
           id="path4188-8"
           d="m 517.4724,1885.4285 c 1.23471,-8.1949 3.82675,-19.7372 6.16747,-27.4635 3.03133,-10.0059 7.10376,-18.9155 10.99704,-24.0593 1.28964,-1.7038 1.45405,-2.3768 0.80654,-3.3012 -0.22251,-0.3177 -0.36457,-0.6132 -0.31568,-0.6568 0.19974,-0.1778 5.31754,-1.1814 7.79131,-1.5278 3.49518,-0.4897 10.20861,-0.4864 13.52689,0.01 15.8954,2.3602 29.10728,13.8306 37.37699,32.4503 1.81821,4.0938 4.80503,12.539 4.53436,12.8208 -0.0396,0.041 -1.98917,-1.3322 -4.33226,-3.0523 -12.15646,-8.9239 -19.57043,-13.5791 -21.72346,-13.6402 -0.45662,-0.013 -0.87295,0.027 -0.92517,0.089 -0.0522,0.062 0.0473,1.5903 0.22124,3.396 0.66518,6.9068 0.96191,14.9934 0.66477,18.1164 -0.49713,5.225 0.5453,5.9062 -10.73645,-7.0161 -5.39075,-6.1746 -9.87911,-11.2265 -9.97413,-11.2263 -0.095,10e-5 -0.1906,4.7934 -0.21241,10.6516 -0.0387,10.3928 -0.16625,13.3392 -0.57746,13.3392 -0.11108,0 -1.09137,-0.5806 -2.17843,-1.2902 -3.78148,-2.4686 -7.72159,-7.1447 -10.23915,-12.1519 -0.87252,-1.7354 -1.35729,-2.8462 -2.2751,-5.2134 -0.21342,-0.5505 -0.46389,-0.2725 -3.08429,3.4234 -3.46879,4.8925 -7.75123,10.6132 -9.98471,13.3381 -1.78986,2.1837 -5.57202,6.1872 -5.8451,6.1872 -0.0924,0 0.0504,-1.449 0.31719,-3.2199 z"
           style="color:#000000;clip-rule:nonzero;display:inline;overflow:visible;visibility:visible;opacity:1;isolation:auto;mix-blend-mode:normal;color-interpolation:sRGB;color-interpolation-filters:linearRGB;solid-color:#000000;solid-opacity:1;fill:#88aa00;fill-opacity:1;fill-rule:nonzero;stroke:#88aa00;stroke-width:1;stroke-linecap:butt;stroke-linejoin:round;stroke-miterlimit:4;stroke-dasharray:none;stroke-dashoffset:0;stroke-opacity:1;color-rendering:auto;image-rendering:auto;shape-rendering:auto;text-rendering:auto;enable-background:accumulate" />
        <path
           sodipodi:nodetypes="cc"
           inkscape:connector-curvature="0"
           id="path4655-2-4-0"
           d="m 625.17677,1887.8683 c 0,0 -8.81345,179.4088 0,186.67"
           style="fill:none;fill-rule:evenodd;stroke:#000000;stroke-width:11.94562531;stroke-linecap:round;stroke-linejoin:round;stroke-miterlimit:4;stroke-dasharray:none;stroke-opacity:1" />
        <path
           sodipodi:nodetypes="cccccccc"
           inkscape:connector-curvature="0"
           id="path4184-7"
           d="m 622.55549,1881.5137 c 1.89404,0.6313 1.71038,2.0112 1.71038,2.0112 -14.28571,17.3215 -19.10714,57.8572 -19.10714,57.8572 0,0 -9.87736,-4.0575 -10.1299,-20.725 0,0 -14.64721,16.5413 -15.9099,14.8998 0,0 -3.40927,-5.3033 2.65165,-23.2336 0,0 -22.72843,11.743 -24.4962,10.1015 22.47589,-59.0939 65.28111,-40.9112 65.28111,-40.9112 z"
           style="fill:#677821;fill-opacity:1;fill-rule:evenodd;stroke:#677821;stroke-width:1px;stroke-linecap:butt;stroke-linejoin:miter;stroke-opacity:1" />
        <path
           inkscape:connector-curvature="0"
           id="path4188-2"
           d="m 606.36582,1936.9463 c 1.23471,-8.1949 3.82675,-19.7372 6.16747,-27.4636 3.03133,-10.0059 7.10376,-18.9155 10.99704,-24.0592 1.28964,-1.7038 1.45405,-2.3768 0.80654,-3.3013 -0.22251,-0.3177 -0.36457,-0.6132 -0.31568,-0.6567 0.19974,-0.1778 5.31754,-1.1814 7.79131,-1.5279 3.49518,-0.4896 10.20861,-0.4864 13.52689,0.01 15.8954,2.3603 29.10728,13.8306 37.37699,32.4503 1.81821,4.0939 4.80503,12.539 4.53436,12.8209 -0.0396,0.041 -1.98917,-1.3322 -4.33226,-3.0523 -12.15646,-8.9239 -19.57043,-13.5792 -21.72346,-13.6402 -0.45662,-0.013 -0.87295,0.027 -0.92517,0.089 -0.0522,0.062 0.0473,1.5903 0.22124,3.396 0.66518,6.9068 0.96191,14.9934 0.66477,18.1164 -0.49713,5.225 0.5453,5.9062 -10.73645,-7.0161 -5.39075,-6.1746 -9.87911,-11.2265 -9.97413,-11.2263 -0.095,10e-5 -0.1906,4.7934 -0.21241,10.6516 -0.0387,10.3928 -0.16625,13.3392 -0.57746,13.3392 -0.11108,0 -1.09137,-0.5806 -2.17843,-1.2902 -3.78148,-2.4686 -7.72159,-7.1447 -10.23915,-12.1519 -0.87252,-1.7354 -1.35729,-2.8462 -2.2751,-5.2134 -0.21342,-0.5505 -0.46389,-0.2725 -3.08429,3.4234 -3.46879,4.8925 -7.75123,10.6132 -9.98471,13.3381 -1.78986,2.1837 -5.57202,6.1872 -5.8451,6.1872 -0.0924,0 0.0504,-1.449 0.31719,-3.2199 z"
           style="color:#000000;clip-rule:nonzero;display:inline;overflow:visible;visibility:visible;opacity:1;isolation:auto;mix-blend-mode:normal;color-interpolation:sRGB;color-interpolation-filters:linearRGB;solid-color:#000000;solid-opacity:1;fill:#88aa00;fill-opacity:1;fill-rule:nonzero;stroke:#88aa00;stroke-width:1;stroke-linecap:butt;stroke-linejoin:round;stroke-miterlimit:4;stroke-dasharray:none;stroke-dashoffset:0;stroke-opacity:1;color-rendering:auto;image-rendering:auto;shape-rendering:auto;text-rendering:auto;enable-background:accumulate" />
      </g>
    </g>
    <g
       inkscape:groupmode="layer"
       id="layer2"
       inkscape:label="Layer 1" />
  </g>
</svg>
