<?xml version="1.0" encoding="UTF-8" standalone="no"?>
<!-- Created with Inkscape (http://www.inkscape.org/) -->

<svg
   xmlns:dc="http://purl.org/dc/elements/1.1/"
   xmlns:cc="http://creativecommons.org/ns#"
   xmlns:rdf="http://www.w3.org/1999/02/22-rdf-syntax-ns#"
   xmlns:svg="http://www.w3.org/2000/svg"
   xmlns="http://www.w3.org/2000/svg"
   xmlns:sodipodi="http://sodipodi.sourceforge.net/DTD/sodipodi-0.dtd"
   xmlns:inkscape="http://www.inkscape.org/namespaces/inkscape"
   width="100mm"
   height="100mm"
   viewBox="0 0 354.33071 354.33073"
   id="svg8055"
   version="1.1"
   inkscape:version="0.91 r13725"
   sodipodi:docname="forest_(standard).svg">
  <defs
     id="defs8057" />
  <sodipodi:namedview
     id="base"
     pagecolor="#ffffff"
     bordercolor="#666666"
     borderopacity="1.0"
     inkscape:pageopacity="0"
     inkscape:pageshadow="2"
     inkscape:zoom="0.35"
     inkscape:cx="-699.82389"
     inkscape:cy="353.76013"
     inkscape:document-units="px"
     inkscape:current-layer="layer1"
     showgrid="false"
     inkscape:window-width="1600"
     inkscape:window-height="838"
     inkscape:window-x="-8"
     inkscape:window-y="-8"
     inkscape:window-maximized="1"
     fit-margin-top="0"
     fit-margin-left="0"
     fit-margin-right="0"
     fit-margin-bottom="0" />
  <metadata
     id="metadata8060">
    <rdf:RDF>
      <cc:Work
         rdf:about="">
        <dc:format>image/svg+xml</dc:format>
        <dc:type
           rdf:resource="http://purl.org/dc/dcmitype/StillImage" />
        <dc:title></dc:title>
      </cc:Work>
    </rdf:RDF>
  </metadata>
  <g
     inkscape:label="Capa 1"
     inkscape:groupmode="layer"
     id="layer1"
     transform="translate(84.285706,-934.36024)">
    <rect
       style="fill:#447821;fill-opacity:1;stroke:#000000;stroke-opacity:1"
       id="rect4230"
       width="354.33072"
       height="354.33072"
       x="-83.785706"
       y="933.86023" />
    <g
       id="g4198"
       transform="translate(-62.831558,54.200154)">
      <g
         inkscape:export-ydpi="90"
         inkscape:export-xdpi="90"
         inkscape:export-filename="C:\Users\CARLOS ALIAGA\Desktop\inkscape\prueba2.png"
         transform="matrix(2.3094154,0,0,3.31779,-3375.835,-1732.6183)"
         id="g4589-0-9-9">
        <path
           style="fill:#000000;fill-opacity:1;fill-rule:evenodd;stroke:#000000;stroke-width:1px;stroke-linecap:butt;stroke-linejoin:miter;stroke-opacity:1"
           d="m 1552.2006,804.86281 c 0,0 -10.1934,51.86834 -13.7556,54.71149 0,0 0.06,6.56337 14.7071,-0.25516 0,0 -2.072,-46.48102 2.2212,-52.79448 -2.3991,-2.65165 -3.1727,-1.66185 -3.1727,-1.66185 z"
           id="path4547-7-7-1-6"
           inkscape:connector-curvature="0"
           sodipodi:nodetypes="ccccc" />
        <path
           style="fill:#000000;fill-opacity:1;fill-rule:evenodd;stroke:#000000;stroke-width:1px;stroke-linecap:butt;stroke-linejoin:miter;stroke-opacity:1"
           d="m 1552.7101,822.70111 c 0,0 12.575,-3.42416 12.8906,-5.76013 l 0.494,1.59325 c 0,0 -12.7096,7.38657 -13.5304,12.1848 l 0.1764,-8.07031"
           id="path4549-7-3-6-5"
           inkscape:connector-curvature="0"
           sodipodi:nodetypes="ccccc" />
        <path
           style="fill:#000000;fill-opacity:1;fill-rule:evenodd;stroke:#000000;stroke-width:1px;stroke-linecap:butt;stroke-linejoin:miter;stroke-opacity:1"
           d="m 1552.588,839.75284 c 18.755,0.13167 15.9689,-16.67292 15.9689,-16.67292 0,0 3.5988,9.47019 -1.1995,15.59424 0,0 -4.7236,5.79967 -14.625,8.65665 z"
           id="path4551-8-4-2-5"
           inkscape:connector-curvature="0"
           sodipodi:nodetypes="ccccc" />
        <path
           style="fill:none;fill-rule:evenodd;stroke:#000000;stroke-width:1px;stroke-linecap:butt;stroke-linejoin:miter;stroke-opacity:1"
           d="m 1552.5831,804.11395 c 0,0 12.7825,8.10741 15.9738,18.96597"
           id="path4553-4-6-4-65"
           inkscape:connector-curvature="0"
           sodipodi:nodetypes="cc" />
        <path
           style="fill:#000000;fill-opacity:1;fill-rule:evenodd;stroke:#000000;stroke-width:1px;stroke-linecap:butt;stroke-linejoin:miter;stroke-opacity:1"
           d="m 1555.131,805.9997 c 0,0 -16.2473,-15.11839 -16.8787,-7.03717 l -2.3991,35.4816 c 0,0 -0.7224,3.36504 8.1591,10.84994 l 1.5296,-6.22283 c 0,0 -4.0956,-0.70247 -5.3955,-5.80051 0,0 -2.3258,-33.60859 2.473,-32.54044 0,0 12.4951,2.02273 11.3713,8.0614 z"
           id="path4555-0-9-0-6"
           inkscape:connector-curvature="0"
           sodipodi:nodetypes="ccccccccc" />
        <path
           style="fill:none;fill-rule:evenodd;stroke:#000000;stroke-width:1px;stroke-linecap:butt;stroke-linejoin:miter;stroke-opacity:1"
           d="m 1545.5419,838.98195 -1.5296,6.31212"
           id="path4557-7-5-0-8"
           inkscape:connector-curvature="0" />
      </g>
      <path
         inkscape:export-ydpi="90"
         inkscape:export-xdpi="90"
         inkscape:export-filename="C:\Users\CARLOS ALIAGA\Desktop\inkscape\prueba2.png"
         inkscape:connector-curvature="0"
         id="path4619-6-4-9"
         d="m 190.31844,1047.4939 c -4.4971,-3.5701 -7.5848,-10.5898 -8.1207,-18.4621 -0.9964,-14.6346 -1.3873,-64.49415 -0.6126,-78.12965 0.9022,-15.8804 2.655,-25.0443 4.7902,-25.0443 1.5094,0 8.9948,3.017 12.7361,5.1334 2.0754,1.174 4.8054,3.0376 6.0666,4.1414 l 2.2931,2.0069 -0.2604,2.8143 c -1.2569,13.5804 -14.2943,107.52245 -15.0521,108.45885 -0.1469,0.1815 -0.975,-0.2319 -1.8402,-0.9188 z"
         style="color:#000000;clip-rule:nonzero;display:inline;overflow:visible;visibility:visible;opacity:1;isolation:auto;mix-blend-mode:normal;color-interpolation:sRGB;color-interpolation-filters:linearRGB;solid-color:#000000;solid-opacity:1;fill:#445016;fill-opacity:1;fill-rule:nonzero;stroke:#445016;stroke-width:0.80967307;stroke-linecap:butt;stroke-linejoin:round;stroke-miterlimit:4;stroke-dasharray:none;stroke-dashoffset:0;stroke-opacity:1;color-rendering:auto;image-rendering:auto;shape-rendering:auto;text-rendering:auto;enable-background:accumulate" />
      <path
         inkscape:export-ydpi="90"
         inkscape:export-xdpi="90"
         inkscape:export-filename="C:\Users\CARLOS ALIAGA\Desktop\inkscape\prueba2.png"
         inkscape:connector-curvature="0"
         id="path4621-1-6-91"
         d="m 212.08384,987.81655 c 0.7692,-18.7322 2.3295,-34.1605 4.0987,-40.5292 l 0.6476,-2.3312 2.8091,3.3946 c 6.4439,7.7869 13.2129,18.0791 17.1023,26.0044 l 1.8517,3.7731 -1.9647,2.0753 c -3.2944,3.4799 -9.6452,7.2714 -20.1647,12.0384 l -4.6481,2.1064 0.2681,-6.5318 z"
         style="color:#000000;clip-rule:nonzero;display:inline;overflow:visible;visibility:visible;opacity:1;isolation:auto;mix-blend-mode:normal;color-interpolation:sRGB;color-interpolation-filters:linearRGB;solid-color:#000000;solid-opacity:1;fill:#5aa02c;fill-opacity:1;fill-rule:nonzero;stroke:#5aa02c;stroke-width:0.80967307;stroke-linecap:butt;stroke-linejoin:round;stroke-miterlimit:4;stroke-dasharray:none;stroke-dashoffset:0;stroke-opacity:1;color-rendering:auto;image-rendering:auto;shape-rendering:auto;text-rendering:auto;enable-background:accumulate" />
      <path
         inkscape:export-ydpi="90"
         inkscape:export-xdpi="90"
         inkscape:export-filename="C:\Users\CARLOS ALIAGA\Desktop\inkscape\prueba2.png"
         inkscape:connector-curvature="0"
         id="path4623-6-4-6"
         d="m 211.15054,1036.9546 c 0,-13.5999 0.06,-14.9189 0.759,-16.8641 1.9488,-5.4183 6.5238,-11.9688 14.2511,-20.40495 5.4815,-5.9843 14.9104,-15.0903 15.2354,-14.7136 0.3308,0.3836 2.6264,7.9774 3.3485,11.0768 0.6086,2.6124 0.7826,4.75885 0.7826,9.65455 0,19.4043 -5.7143,33.7321 -16.2845,40.8314 -3.9378,2.6447 -12.2151,5.16 -17.0179,5.1713 l -1.0742,0 0,-14.7539 z"
         style="color:#000000;clip-rule:nonzero;display:inline;overflow:visible;visibility:visible;opacity:1;isolation:auto;mix-blend-mode:normal;color-interpolation:sRGB;color-interpolation-filters:linearRGB;solid-color:#000000;solid-opacity:1;fill:#5aa02c;fill-opacity:1;fill-rule:nonzero;stroke:#5aa02c;stroke-width:0.80967307;stroke-linecap:butt;stroke-linejoin:round;stroke-miterlimit:4;stroke-dasharray:none;stroke-dashoffset:0;stroke-opacity:1;color-rendering:auto;image-rendering:auto;shape-rendering:auto;text-rendering:auto;enable-background:accumulate" />
      <g
         inkscape:export-ydpi="90"
         inkscape:export-xdpi="90"
         inkscape:export-filename="C:\Users\CARLOS ALIAGA\Desktop\inkscape\prueba2.png"
         transform="matrix(2.558566,0,0,3.3155767,-3867.6589,-1698.211)"
         id="g4589-0-9-7-3">
        <path
           style="fill:#000000;fill-opacity:1;fill-rule:evenodd;stroke:#000000;stroke-width:1px;stroke-linecap:butt;stroke-linejoin:miter;stroke-opacity:1"
           d="m 1552.2006,804.86281 c 0,0 -10.1934,51.86834 -13.7556,54.71149 0,0 0.06,6.56337 14.7071,-0.25516 0,0 -2.072,-46.48102 2.2212,-52.79448 -2.3991,-2.65165 -3.1727,-1.66185 -3.1727,-1.66185 z"
           id="path4547-7-7-1-4-5"
           inkscape:connector-curvature="0"
           sodipodi:nodetypes="ccccc" />
        <path
           style="fill:#000000;fill-opacity:1;fill-rule:evenodd;stroke:#000000;stroke-width:1px;stroke-linecap:butt;stroke-linejoin:miter;stroke-opacity:1"
           d="m 1552.7101,822.70111 c 0,0 12.575,-3.42416 12.8906,-5.76013 l 0.494,1.59325 c 0,0 -12.7096,7.38657 -13.5304,12.1848 l 0.1764,-8.07031"
           id="path4549-7-3-6-1-8"
           inkscape:connector-curvature="0"
           sodipodi:nodetypes="ccccc" />
        <path
           style="fill:#000000;fill-opacity:1;fill-rule:evenodd;stroke:#000000;stroke-width:1px;stroke-linecap:butt;stroke-linejoin:miter;stroke-opacity:1"
           d="m 1552.588,839.75284 c 18.755,0.13167 15.9689,-16.67292 15.9689,-16.67292 0,0 3.5988,9.47019 -1.1995,15.59424 0,0 -4.7236,5.79967 -14.625,8.65665 z"
           id="path4551-8-4-2-8-8"
           inkscape:connector-curvature="0"
           sodipodi:nodetypes="ccccc" />
        <path
           style="fill:none;fill-rule:evenodd;stroke:#000000;stroke-width:1px;stroke-linecap:butt;stroke-linejoin:miter;stroke-opacity:1"
           d="m 1552.5831,804.11395 c 0,0 12.7825,8.10741 15.9738,18.96597"
           id="path4553-4-6-4-6-4"
           inkscape:connector-curvature="0"
           sodipodi:nodetypes="cc" />
        <path
           style="fill:#000000;fill-opacity:1;fill-rule:evenodd;stroke:#000000;stroke-width:1px;stroke-linecap:butt;stroke-linejoin:miter;stroke-opacity:1"
           d="m 1555.131,805.9997 c 0,0 -16.2473,-15.11839 -16.8787,-7.03717 l -2.3991,35.4816 c 0,0 -0.7224,3.36504 8.1591,10.84994 l 1.5296,-6.22283 c 0,0 -4.0956,-0.70247 -5.3955,-5.80051 0,0 -2.3258,-33.60859 2.473,-32.54044 0,0 12.4951,2.02273 11.3713,8.0614 z"
           id="path4555-0-9-0-5-2"
           inkscape:connector-curvature="0"
           sodipodi:nodetypes="ccccccccc" />
        <path
           style="fill:none;fill-rule:evenodd;stroke:#000000;stroke-width:1px;stroke-linecap:butt;stroke-linejoin:miter;stroke-opacity:1"
           d="m 1545.5419,838.98195 -1.5296,6.31212"
           id="path4557-7-5-0-9-3"
           inkscape:connector-curvature="0" />
      </g>
      <path
         inkscape:export-ydpi="90"
         inkscape:export-xdpi="90"
         inkscape:export-filename="C:\Users\CARLOS ALIAGA\Desktop\inkscape\prueba2.png"
         inkscape:connector-curvature="0"
         id="path4619-6-4-8-6"
         d="m 83.227944,1080.0467 c -4.9823,-3.5678 -8.4031,-10.5828 -8.9968,-18.4498 -1.1038,-14.6249 -1.5369,-64.45115 -0.6787,-78.07755 0.9996,-15.8698 2.9414,-25.0276 5.307,-25.0276 1.6723,0 9.9652,3.015 14.1102,5.13 2.2993,1.1732 5.3238,3.0356 6.7211,4.1386 l 2.540496,2.0056 -0.2886,2.8124 c -1.3924,13.5713 -15.836296,107.45065 -16.675896,108.38645 -0.1628,0.1814 -1.0803,-0.2317 -2.0388,-0.9181 z"
         style="color:#000000;clip-rule:nonzero;display:inline;overflow:visible;visibility:visible;opacity:1;isolation:auto;mix-blend-mode:normal;color-interpolation:sRGB;color-interpolation-filters:linearRGB;solid-color:#000000;solid-opacity:1;fill:#445016;fill-opacity:1;fill-rule:nonzero;stroke:#445016;stroke-width:0.851946;stroke-linecap:butt;stroke-linejoin:round;stroke-miterlimit:4;stroke-dasharray:none;stroke-dashoffset:0;stroke-opacity:1;color-rendering:auto;image-rendering:auto;shape-rendering:auto;text-rendering:auto;enable-background:accumulate" />
      <path
         inkscape:export-ydpi="90"
         inkscape:export-xdpi="90"
         inkscape:export-filename="C:\Users\CARLOS ALIAGA\Desktop\inkscape\prueba2.png"
         inkscape:connector-curvature="0"
         id="path4621-1-6-9-9"
         d="m 107.34154,1020.4091 c 0.8522,-18.7197 2.5808,-34.13775 4.5409,-40.50215 l 0.7174,-2.3296 3.1122,3.3923 c 7.1391,7.7817 14.6383,18.067 18.9474,25.98695 l 2.0514,3.7706 -2.1766,2.0739 c -3.6498,3.4776 -10.6858,7.2666 -22.3402,12.0304 l -5.1496,2.105 0.2971,-6.5274 z"
         style="color:#000000;clip-rule:nonzero;display:inline;overflow:visible;visibility:visible;opacity:1;isolation:auto;mix-blend-mode:normal;color-interpolation:sRGB;color-interpolation-filters:linearRGB;solid-color:#000000;solid-opacity:1;fill:#5aa02c;fill-opacity:1;fill-rule:nonzero;stroke:#5aa02c;stroke-width:0.851946;stroke-linecap:butt;stroke-linejoin:round;stroke-miterlimit:4;stroke-dasharray:none;stroke-dashoffset:0;stroke-opacity:1;color-rendering:auto;image-rendering:auto;shape-rendering:auto;text-rendering:auto;enable-background:accumulate" />
      <path
         inkscape:export-ydpi="90"
         inkscape:export-xdpi="90"
         inkscape:export-filename="C:\Users\CARLOS ALIAGA\Desktop\inkscape\prueba2.png"
         inkscape:connector-curvature="0"
         id="path4623-6-4-0-5"
         d="m 106.30754,1069.5144 c 0,-13.5908 0.066,-14.909 0.8409,-16.8529 2.1591,-5.4147 7.2276,-11.9608 15.7886,-20.3914 6.0728,-5.9803 16.519,-15.0802 16.879,-14.7037 0.3665,0.3833 2.9098,7.972 3.7097,11.0694 0.6743,2.6106 0.8671,4.7557 0.8671,9.6481 0,19.3914 -6.3308,33.7096 -18.0413,40.8042 -4.3626,2.643 -13.5329,5.1565 -18.8539,5.1678 l -1.1901,0 0,-14.744 z"
         style="color:#000000;clip-rule:nonzero;display:inline;overflow:visible;visibility:visible;opacity:1;isolation:auto;mix-blend-mode:normal;color-interpolation:sRGB;color-interpolation-filters:linearRGB;solid-color:#000000;solid-opacity:1;fill:#5aa02c;fill-opacity:1;fill-rule:nonzero;stroke:#5aa02c;stroke-width:0.851946;stroke-linecap:butt;stroke-linejoin:round;stroke-miterlimit:4;stroke-dasharray:none;stroke-dashoffset:0;stroke-opacity:1;color-rendering:auto;image-rendering:auto;shape-rendering:auto;text-rendering:auto;enable-background:accumulate" />
      <g
         inkscape:export-ydpi="90"
         inkscape:export-xdpi="90"
         inkscape:export-filename="C:\Users\CARLOS ALIAGA\Desktop\inkscape\prueba2.png"
         transform="matrix(2.558566,0,0,3.3155767,-3801.6589,-1655.0681)"
         id="g4589-0-9-7-8-6">
        <path
           style="fill:#000000;fill-opacity:1;fill-rule:evenodd;stroke:#000000;stroke-width:1px;stroke-linecap:butt;stroke-linejoin:miter;stroke-opacity:1"
           d="m 1552.2006,804.86281 c 0,0 -10.1934,51.86834 -13.7556,54.71149 0,0 0.06,6.56337 14.7071,-0.25516 0,0 -2.072,-46.48102 2.2212,-52.79448 -2.3991,-2.65165 -3.1727,-1.66185 -3.1727,-1.66185 z"
           id="path4547-7-7-1-4-9-4"
           inkscape:connector-curvature="0"
           sodipodi:nodetypes="ccccc" />
        <path
           style="fill:#000000;fill-opacity:1;fill-rule:evenodd;stroke:#000000;stroke-width:1px;stroke-linecap:butt;stroke-linejoin:miter;stroke-opacity:1"
           d="m 1552.7101,822.70111 c 0,0 12.575,-3.42416 12.8906,-5.76013 l 0.494,1.59325 c 0,0 -12.7096,7.38657 -13.5304,12.1848 l 0.1764,-8.07031"
           id="path4549-7-3-6-1-6-9"
           inkscape:connector-curvature="0"
           sodipodi:nodetypes="ccccc" />
        <path
           style="fill:#000000;fill-opacity:1;fill-rule:evenodd;stroke:#000000;stroke-width:1px;stroke-linecap:butt;stroke-linejoin:miter;stroke-opacity:1"
           d="m 1552.588,839.75284 c 18.755,0.13167 15.9689,-16.67292 15.9689,-16.67292 0,0 3.5988,9.47019 -1.1995,15.59424 0,0 -4.7236,5.79967 -14.625,8.65665 z"
           id="path4551-8-4-2-8-7-7"
           inkscape:connector-curvature="0"
           sodipodi:nodetypes="ccccc" />
        <path
           style="fill:none;fill-rule:evenodd;stroke:#000000;stroke-width:1px;stroke-linecap:butt;stroke-linejoin:miter;stroke-opacity:1"
           d="m 1552.5831,804.11395 c 0,0 12.7825,8.10741 15.9738,18.96597"
           id="path4553-4-6-4-6-9-2"
           inkscape:connector-curvature="0"
           sodipodi:nodetypes="cc" />
        <path
           style="fill:#000000;fill-opacity:1;fill-rule:evenodd;stroke:#000000;stroke-width:1px;stroke-linecap:butt;stroke-linejoin:miter;stroke-opacity:1"
           d="m 1555.131,805.9997 c 0,0 -16.2473,-15.11839 -16.8787,-7.03717 l -2.3991,35.4816 c 0,0 -0.7224,3.36504 8.1591,10.84994 l 1.5296,-6.22283 c 0,0 -4.0956,-0.70247 -5.3955,-5.80051 0,0 -2.3258,-33.60859 2.473,-32.54044 0,0 12.4951,2.02273 11.3713,8.0614 z"
           id="path4555-0-9-0-5-5-4"
           inkscape:connector-curvature="0"
           sodipodi:nodetypes="ccccccccc" />
        <path
           style="fill:none;fill-rule:evenodd;stroke:#000000;stroke-width:1px;stroke-linecap:butt;stroke-linejoin:miter;stroke-opacity:1"
           d="m 1545.5419,838.98195 -1.5296,6.31212"
           id="path4557-7-5-0-9-7-0"
           inkscape:connector-curvature="0" />
      </g>
      <path
         inkscape:export-ydpi="90"
         inkscape:export-xdpi="90"
         inkscape:export-filename="C:\Users\CARLOS ALIAGA\Desktop\inkscape\prueba2.png"
         inkscape:connector-curvature="0"
         id="path4619-6-4-8-5-5"
         d="m 149.22794,1123.1896 c -4.9823,-3.5678 -8.4031,-10.5828 -8.9968,-18.4498 -1.1038,-14.6249 -1.5369,-64.4512 -0.6787,-78.0776 0.9996,-15.8698 2.9414,-25.0276 5.307,-25.0276 1.6723,0 9.9652,3.015 14.1102,5.13 2.2993,1.1732 5.3238,3.0356 6.7211,4.1386 l 2.5405,2.0056 -0.2886,2.8124 c -1.3924,13.5713 -15.8363,107.4507 -16.6759,108.3865 -0.1628,0.1814 -1.0803,-0.2317 -2.0388,-0.9181 z"
         style="color:#000000;clip-rule:nonzero;display:inline;overflow:visible;visibility:visible;opacity:1;isolation:auto;mix-blend-mode:normal;color-interpolation:sRGB;color-interpolation-filters:linearRGB;solid-color:#000000;solid-opacity:1;fill:#445016;fill-opacity:1;fill-rule:nonzero;stroke:#445016;stroke-width:0.851946;stroke-linecap:butt;stroke-linejoin:round;stroke-miterlimit:4;stroke-dasharray:none;stroke-dashoffset:0;stroke-opacity:1;color-rendering:auto;image-rendering:auto;shape-rendering:auto;text-rendering:auto;enable-background:accumulate" />
      <path
         inkscape:export-ydpi="90"
         inkscape:export-xdpi="90"
         inkscape:export-filename="C:\Users\CARLOS ALIAGA\Desktop\inkscape\prueba2.png"
         inkscape:connector-curvature="0"
         id="path4621-1-6-9-4-1"
         d="m 173.34154,1063.552 c 0.8522,-18.7197 2.5808,-34.1378 4.5409,-40.5022 l 0.7174,-2.3296 3.1122,3.3923 c 7.1391,7.7817 14.6383,18.067 18.9474,25.987 l 2.0514,3.7706 -2.1766,2.0739 c -3.6498,3.4776 -10.6858,7.2666 -22.3402,12.0304 l -5.1496,2.105 0.2971,-6.5274 z"
         style="color:#000000;clip-rule:nonzero;display:inline;overflow:visible;visibility:visible;opacity:1;isolation:auto;mix-blend-mode:normal;color-interpolation:sRGB;color-interpolation-filters:linearRGB;solid-color:#000000;solid-opacity:1;fill:#5aa02c;fill-opacity:1;fill-rule:nonzero;stroke:#5aa02c;stroke-width:0.851946;stroke-linecap:butt;stroke-linejoin:round;stroke-miterlimit:4;stroke-dasharray:none;stroke-dashoffset:0;stroke-opacity:1;color-rendering:auto;image-rendering:auto;shape-rendering:auto;text-rendering:auto;enable-background:accumulate" />
      <path
         inkscape:export-ydpi="90"
         inkscape:export-xdpi="90"
         inkscape:export-filename="C:\Users\CARLOS ALIAGA\Desktop\inkscape\prueba2.png"
         inkscape:connector-curvature="0"
         id="path4623-6-4-0-6-2"
         d="m 172.30754,1112.6573 c 0,-13.5908 0.066,-14.909 0.8409,-16.8529 2.1591,-5.4147 7.2276,-11.9608 15.7886,-20.3914 6.0728,-5.9803 16.519,-15.0802 16.879,-14.7037 0.3665,0.3833 2.9098,7.972 3.7097,11.0694 0.6743,2.6106 0.8671,4.7557 0.8671,9.6481 0,19.3914 -6.3308,33.7096 -18.0413,40.8042 -4.3626,2.643 -13.5329,5.1565 -18.8539,5.1678 l -1.1901,0 0,-14.744 z"
         style="color:#000000;clip-rule:nonzero;display:inline;overflow:visible;visibility:visible;opacity:1;isolation:auto;mix-blend-mode:normal;color-interpolation:sRGB;color-interpolation-filters:linearRGB;solid-color:#000000;solid-opacity:1;fill:#5aa02c;fill-opacity:1;fill-rule:nonzero;stroke:#5aa02c;stroke-width:0.851946;stroke-linecap:butt;stroke-linejoin:round;stroke-miterlimit:4;stroke-dasharray:none;stroke-dashoffset:0;stroke-opacity:1;color-rendering:auto;image-rendering:auto;shape-rendering:auto;text-rendering:auto;enable-background:accumulate" />
    </g>
  </g>
</svg>
