<?xml version="1.0" encoding="UTF-8" standalone="no"?>
<!-- Created with Inkscape (http://www.inkscape.org/) -->

<svg
   xmlns:dc="http://purl.org/dc/elements/1.1/"
   xmlns:cc="http://creativecommons.org/ns#"
   xmlns:rdf="http://www.w3.org/1999/02/22-rdf-syntax-ns#"
   xmlns:svg="http://www.w3.org/2000/svg"
   xmlns="http://www.w3.org/2000/svg"
   xmlns:sodipodi="http://sodipodi.sourceforge.net/DTD/sodipodi-0.dtd"
   xmlns:inkscape="http://www.inkscape.org/namespaces/inkscape"
   width="100mm"
   height="100mm"
   viewBox="0 0 354.33071 354.33073"
   id="svg4153"
   version="1.1"
   inkscape:version="0.91 r13725"
   sodipodi:docname="grass.svg">
  <defs
     id="defs4155" />
  <sodipodi:namedview
     id="base"
     pagecolor="#ffffff"
     bordercolor="#666666"
     borderopacity="1.0"
     inkscape:pageopacity="0.0"
     inkscape:pageshadow="2"
     inkscape:zoom="0.7"
     inkscape:cx="-381.05575"
     inkscape:cy="259.65682"
     inkscape:document-units="px"
     inkscape:current-layer="layer1"
     showgrid="false"
     inkscape:window-width="1600"
     inkscape:window-height="838"
     inkscape:window-x="-8"
     inkscape:window-y="-8"
     inkscape:window-maximized="1"
     fit-margin-top="0"
     fit-margin-left="0"
     fit-margin-right="0"
     fit-margin-bottom="0" />
  <metadata
     id="metadata4158">
    <rdf:RDF>
      <cc:Work
         rdf:about="">
        <dc:format>image/svg+xml</dc:format>
        <dc:type
           rdf:resource="http://purl.org/dc/dcmitype/StillImage" />
        <dc:title></dc:title>
      </cc:Work>
    </rdf:RDF>
  </metadata>
  <g
     inkscape:label="Capa 1"
     inkscape:groupmode="layer"
     id="layer1"
     transform="translate(-130,-342.93159)">
    <rect
       style="fill:#447821;fill-opacity:0.99215686;stroke:#000000;stroke-opacity:1"
       id="rect4147"
       width="354.33072"
       height="354.33072"
       x="130.5"
       y="342.43158" />
    <g
       id="g4137"
       transform="translate(222.63064,459.29083)">
      <g
         id="g4142"
         transform="translate(-280.82243,-428.30471)">
        <path
           style="color:#000000;clip-rule:nonzero;display:inline;overflow:visible;visibility:visible;opacity:1;isolation:auto;mix-blend-mode:normal;color-interpolation:sRGB;color-interpolation-filters:linearRGB;solid-color:#000000;solid-opacity:1;fill:#445500;fill-opacity:1;fill-rule:nonzero;stroke:#445500;stroke-width:0.505;stroke-linecap:round;stroke-linejoin:round;stroke-miterlimit:4;stroke-dasharray:none;stroke-dashoffset:0;stroke-opacity:1;color-rendering:auto;image-rendering:auto;shape-rendering:auto;text-rendering:auto;enable-background:accumulate"
           d="m 287.81662,435.3082 c -6.40446,-8.12542 -11.5832,-14.84497 -11.50831,-14.93235 0.0749,-0.0874 6.21312,3.3787 13.64051,7.70241 7.42739,4.32371 13.64878,7.86128 13.82531,7.86128 0.17653,0 2.92827,-9.75441 6.11497,-21.67646 3.18671,-11.92206 5.92845,-21.45894 6.09276,-21.19307 0.16432,0.26586 2.77987,9.79234 5.81234,21.16994 3.03248,11.3776 5.74088,20.68268 6.01867,20.67794 0.27779,-0.005 6.97231,-3.7457 14.87671,-8.31326 7.90439,-4.56757 14.45539,-8.2209 14.55777,-8.11852 0.10239,0.10238 -4.74787,7.25327 -10.77834,15.89086 l -12.85852,15.70471 -16.12768,0 -18.02172,0 z"
           id="path4709"
           inkscape:connector-curvature="0"
           sodipodi:nodetypes="scssscscscscccs" />
        <path
           style="color:#000000;clip-rule:nonzero;display:inline;overflow:visible;visibility:visible;opacity:1;isolation:auto;mix-blend-mode:normal;color-interpolation:sRGB;color-interpolation-filters:linearRGB;solid-color:#000000;solid-opacity:1;fill:#445500;fill-opacity:1;fill-rule:nonzero;stroke:#445500;stroke-width:0.505;stroke-linecap:round;stroke-linejoin:round;stroke-miterlimit:4;stroke-dasharray:none;stroke-dashoffset:0;stroke-opacity:1;color-rendering:auto;image-rendering:auto;shape-rendering:auto;text-rendering:auto;enable-background:accumulate"
           d="m 414.60963,498.95382 c -6.40446,-8.12542 -11.5832,-14.84497 -11.50831,-14.93235 0.0749,-0.0874 6.21312,3.3787 13.64051,7.70241 7.42739,4.32371 13.64878,7.86128 13.82531,7.86128 0.17653,0 2.92827,-9.75441 6.11497,-21.67646 3.18671,-11.92206 5.92845,-21.45894 6.09276,-21.19307 0.16432,0.26586 2.77987,9.79234 5.81234,21.16994 3.03248,11.3776 5.74088,20.68268 6.01867,20.67794 0.27779,-0.005 6.97231,-3.7457 14.87671,-8.31326 7.90439,-4.56757 14.45539,-8.2209 14.55777,-8.11852 0.10239,0.10238 -4.74787,7.25327 -10.77834,15.89086 l -12.85852,15.70471 -16.12768,0 -18.02172,0 z"
           id="path4709-8"
           inkscape:connector-curvature="0"
           sodipodi:nodetypes="scssscscscscccs" />
        <path
           style="color:#000000;clip-rule:nonzero;display:inline;overflow:visible;visibility:visible;opacity:1;isolation:auto;mix-blend-mode:normal;color-interpolation:sRGB;color-interpolation-filters:linearRGB;solid-color:#000000;solid-opacity:1;fill:#445500;fill-opacity:1;fill-rule:nonzero;stroke:#445500;stroke-width:0.505;stroke-linecap:round;stroke-linejoin:round;stroke-miterlimit:4;stroke-dasharray:none;stroke-dashoffset:0;stroke-opacity:1;color-rendering:auto;image-rendering:auto;shape-rendering:auto;text-rendering:auto;enable-background:accumulate"
           d="m 258.18106,570.38238 c -6.40446,-8.12542 -11.5832,-14.84497 -11.50831,-14.93235 0.0749,-0.0874 6.21312,3.3787 13.64051,7.70241 7.42739,4.32371 13.64878,7.86128 13.82531,7.86128 0.17653,0 2.92827,-9.75441 6.11497,-21.67646 3.18671,-11.92206 5.92845,-21.45894 6.09276,-21.19307 0.16432,0.26586 2.77987,9.79234 5.81234,21.16994 3.03248,11.3776 5.74088,20.68268 6.01867,20.67794 0.27779,-0.005 6.97231,-3.7457 14.87671,-8.31326 7.90439,-4.56757 14.45539,-8.2209 14.55777,-8.11852 0.10239,0.10238 -4.74787,7.25327 -10.77834,15.89086 l -12.85852,15.70471 -16.12768,0 -18.02172,0 z"
           id="path4709-4"
           inkscape:connector-curvature="0"
           sodipodi:nodetypes="scssscscscscccs" />
      </g>
    </g>
  </g>
</svg>
