<?xml version="1.0" encoding="UTF-8" standalone="no"?>
<!-- Created with Inkscape (http://www.inkscape.org/) -->

<svg
   xmlns:dc="http://purl.org/dc/elements/1.1/"
   xmlns:cc="http://creativecommons.org/ns#"
   xmlns:rdf="http://www.w3.org/1999/02/22-rdf-syntax-ns#"
   xmlns:svg="http://www.w3.org/2000/svg"
   xmlns="http://www.w3.org/2000/svg"
   xmlns:sodipodi="http://sodipodi.sourceforge.net/DTD/sodipodi-0.dtd"
   xmlns:inkscape="http://www.inkscape.org/namespaces/inkscape"
   width="100mm"
   height="100mm"
   viewBox="0 0 354.33071 354.33073"
   id="svg8850"
   version="1.1"
   inkscape:version="0.91 r13725"
   sodipodi:docname="hills_(brown).svg">
  <defs
     id="defs8852" />
  <sodipodi:namedview
     id="base"
     pagecolor="#ffffff"
     bordercolor="#666666"
     borderopacity="1.0"
     inkscape:pageopacity="0.0"
     inkscape:pageshadow="2"
     inkscape:zoom="0.35"
     inkscape:cx="-1012.1429"
     inkscape:cy="124.9001"
     inkscape:document-units="px"
     inkscape:current-layer="layer1"
     showgrid="false"
     inkscape:window-width="1600"
     inkscape:window-height="838"
     inkscape:window-x="-8"
     inkscape:window-y="-8"
     inkscape:window-maximized="1"
     fit-margin-top="0"
     fit-margin-left="0"
     fit-margin-right="0"
     fit-margin-bottom="0"
     showguides="false" />
  <metadata
     id="metadata8855">
    <rdf:RDF>
      <cc:Work
         rdf:about="">
        <dc:format>image/svg+xml</dc:format>
        <dc:type
           rdf:resource="http://purl.org/dc/dcmitype/StillImage" />
        <dc:title></dc:title>
      </cc:Work>
    </rdf:RDF>
  </metadata>
  <g
     inkscape:label="Capa 1"
     inkscape:groupmode="layer"
     id="layer1"
     transform="translate(-58.571442,-302.93159)">
    <rect
       style="fill:#a05a2c;fill-opacity:1;stroke:#000000;stroke-width:1.04614913;stroke-opacity:1"
       id="rect4154"
       width="353.28455"
       height="353.28455"
       x="-412.37909"
       y="-656.73926"
       transform="scale(-1,-1)" />
    <g
       id="g4143"
       transform="matrix(0.84991536,0,0,0.84991536,-29.144785,109.98763)">
      <g
         inkscape:export-ydpi="90"
         inkscape:export-xdpi="90"
         transform="translate(-726.45144,-2653.0105)"
         id="g5595-4-0">
        <path
           style="color:#000000;clip-rule:nonzero;display:inline;overflow:visible;visibility:visible;opacity:1;isolation:auto;mix-blend-mode:normal;color-interpolation:sRGB;color-interpolation-filters:linearRGB;solid-color:#000000;solid-opacity:1;fill:#784421;fill-opacity:1;fill-rule:nonzero;stroke:#784421;stroke-width:1.09244072;stroke-linecap:butt;stroke-linejoin:round;stroke-miterlimit:4;stroke-dasharray:none;stroke-dashoffset:0;stroke-opacity:1;color-rendering:auto;image-rendering:auto;shape-rendering:auto;text-rendering:auto;enable-background:accumulate"
           d="m 948.47581,3058.074 c -9.63413,-0.6221 -21.67951,-2.1111 -31.25202,-3.8633 -13.62377,-2.4938 -30.09454,-6.4338 -30.09454,-7.1991 0,-1.2432 14.74672,-17.7449 23.22828,-25.9928 18.60789,-18.0952 38.06665,-31.3596 57.59654,-39.262 5.19939,-2.1037 13.34841,-4.6228 13.69856,-4.2345 0.11857,0.1315 -0.94439,3.7797 -2.36214,8.1071 -3.98162,12.153 -5.23879,19.9761 -5.2597,32.7297 -0.0202,12.3505 1.31173,21.0452 4.64071,30.2936 1.07943,2.9987 1.67188,5.7364 1.31655,6.0839 -1.90466,1.862 -21.7731,3.9663 -31.51224,3.3374 z"
           id="path5578-4-1"
           inkscape:connector-curvature="0" />
        <path
           style="fill:none;fill-rule:evenodd;stroke:#000000;stroke-width:10;stroke-linecap:round;stroke-linejoin:miter;stroke-miterlimit:4;stroke-dasharray:none;stroke-opacity:1"
           d="m 1114.0002,3044.9283 c -113.3634,-169.2172 -228.00007,0 -228.00007,0"
           id="path5576-7-9"
           inkscape:connector-curvature="0"
           sodipodi:nodetypes="cc" />
      </g>
      <g
         inkscape:export-ydpi="90"
         inkscape:export-xdpi="90"
         transform="translate(-650.23574,-2583.0286)"
         id="g5595-5-6-9">
        <path
           style="color:#000000;clip-rule:nonzero;display:inline;overflow:visible;visibility:visible;opacity:0.98999999;isolation:auto;mix-blend-mode:normal;color-interpolation:sRGB;color-interpolation-filters:linearRGB;solid-color:#000000;solid-opacity:1;fill:#784421;fill-opacity:1;fill-rule:nonzero;stroke:#784421;stroke-width:1.09244072;stroke-linecap:butt;stroke-linejoin:round;stroke-miterlimit:4;stroke-dasharray:none;stroke-dashoffset:0;stroke-opacity:1;color-rendering:auto;image-rendering:auto;shape-rendering:auto;text-rendering:auto;enable-background:accumulate"
           d="m 948.47581,3058.074 c -9.63413,-0.6221 -21.67951,-2.1111 -31.25202,-3.8633 -13.62377,-2.4938 -30.09454,-6.4338 -30.09454,-7.1991 0,-1.2432 14.74672,-17.7449 23.22828,-25.9928 18.60789,-18.0952 38.06665,-31.3596 57.59654,-39.262 5.19939,-2.1037 13.34841,-4.6228 13.69856,-4.2345 0.11857,0.1315 -0.94439,3.7797 -2.36214,8.1071 -3.98162,12.153 -5.23879,19.9761 -5.2597,32.7297 -0.0202,12.3505 1.31173,21.0452 4.64071,30.2936 1.07943,2.9987 1.67188,5.7364 1.31655,6.0839 -1.90466,1.862 -21.7731,3.9663 -31.51224,3.3374 z"
           id="path5578-0-1-2"
           inkscape:connector-curvature="0" />
        <path
           style="fill:none;fill-rule:evenodd;stroke:#000000;stroke-width:10;stroke-linecap:round;stroke-linejoin:miter;stroke-miterlimit:4;stroke-dasharray:none;stroke-opacity:1"
           d="m 1114.0002,3044.9283 c -113.3634,-169.2172 -228.00007,0 -228.00007,0"
           id="path5576-4-9-4"
           inkscape:connector-curvature="0"
           sodipodi:nodetypes="cc" />
      </g>
      <g
         inkscape:export-ydpi="90"
         inkscape:export-xdpi="90"
         transform="translate(-706.23574,-2499.5286)"
         id="g5595-9-3-3">
        <path
           style="color:#000000;clip-rule:nonzero;display:inline;overflow:visible;visibility:visible;opacity:1;isolation:auto;mix-blend-mode:normal;color-interpolation:sRGB;color-interpolation-filters:linearRGB;solid-color:#000000;solid-opacity:1;fill:#784421;fill-opacity:1;fill-rule:nonzero;stroke:#784421;stroke-width:1.09244072;stroke-linecap:butt;stroke-linejoin:round;stroke-miterlimit:4;stroke-dasharray:none;stroke-dashoffset:0;stroke-opacity:1;color-rendering:auto;image-rendering:auto;shape-rendering:auto;text-rendering:auto;enable-background:accumulate"
           d="m 948.47581,3058.074 c -9.63413,-0.6221 -21.67951,-2.1111 -31.25202,-3.8633 -13.62377,-2.4938 -30.09454,-6.4338 -30.09454,-7.1991 0,-1.2432 14.74672,-17.7449 23.22828,-25.9928 18.60789,-18.0952 38.06665,-31.3596 57.59654,-39.262 5.19939,-2.1037 13.34841,-4.6228 13.69856,-4.2345 0.11857,0.1315 -0.94439,3.7797 -2.36214,8.1071 -3.98162,12.153 -5.23879,19.9761 -5.2597,32.7297 -0.0202,12.3505 1.31173,21.0452 4.64071,30.2936 1.07943,2.9987 1.67188,5.7364 1.31655,6.0839 -1.90466,1.862 -21.7731,3.9663 -31.51224,3.3374 z"
           id="path5578-5-9-4"
           inkscape:connector-curvature="0" />
        <path
           style="fill:none;fill-rule:evenodd;stroke:#000000;stroke-width:10;stroke-linecap:round;stroke-linejoin:miter;stroke-miterlimit:4;stroke-dasharray:none;stroke-opacity:1"
           d="m 1114.0002,3044.9283 c -113.3634,-169.2172 -228.00007,0 -228.00007,0"
           id="path5576-0-6-7"
           inkscape:connector-curvature="0"
           sodipodi:nodetypes="cc" />
      </g>
    </g>
  </g>
</svg>
