<?xml version="1.0" encoding="UTF-8" standalone="no"?>
<!-- Created with Inkscape (http://www.inkscape.org/) -->

<svg
   xmlns:dc="http://purl.org/dc/elements/1.1/"
   xmlns:cc="http://creativecommons.org/ns#"
   xmlns:rdf="http://www.w3.org/1999/02/22-rdf-syntax-ns#"
   xmlns:svg="http://www.w3.org/2000/svg"
   xmlns="http://www.w3.org/2000/svg"
   xmlns:sodipodi="http://sodipodi.sourceforge.net/DTD/sodipodi-0.dtd"
   xmlns:inkscape="http://www.inkscape.org/namespaces/inkscape"
   width="100mm"
   height="100mm"
   viewBox="0 0 354.33071 354.33073"
   id="svg4153"
   version="1.1"
   inkscape:version="0.91 r13725"
   sodipodi:docname="river.svg">
  <defs
     id="defs4155" />
  <sodipodi:namedview
     id="base"
     pagecolor="#ffffff"
     bordercolor="#666666"
     borderopacity="1.0"
     inkscape:pageopacity="0.0"
     inkscape:pageshadow="2"
     inkscape:zoom="0.49497475"
     inkscape:cx="-70.338988"
     inkscape:cy="105.43984"
     inkscape:document-units="px"
     inkscape:current-layer="layer1"
     showgrid="false"
     inkscape:window-width="1600"
     inkscape:window-height="838"
     inkscape:window-x="-8"
     inkscape:window-y="-8"
     inkscape:window-maximized="1"
     fit-margin-top="0"
     fit-margin-left="0"
     fit-margin-right="0"
     fit-margin-bottom="0" />
  <metadata
     id="metadata4158">
    <rdf:RDF>
      <cc:Work
         rdf:about="">
        <dc:format>image/svg+xml</dc:format>
        <dc:type
           rdf:resource="http://purl.org/dc/dcmitype/StillImage" />
        <dc:title></dc:title>
      </cc:Work>
    </rdf:RDF>
  </metadata>
  <g
     inkscape:label="Capa 1"
     inkscape:groupmode="layer"
     id="layer1"
     transform="translate(-130,-342.93159)">
    <rect
       style="fill:#8293ab;fill-opacity:1;stroke:none;stroke-width:5.01638937;stroke-opacity:1"
       id="rect4156"
       width="354.33072"
       height="354.33072"
       x="130"
       y="342.93158" />
    <path
       inkscape:export-ydpi="90"
       inkscape:export-xdpi="90"
       sodipodi:nodetypes="scssscscscscccs"
       inkscape:connector-curvature="0"
       id="path4709-4-7-7-41-7-4-5-1"
       d="m 159.069,401.39413 c -5.1071,-6.4793 -9.2366,-11.8376 -9.177,-11.9072 0.06,-0.069 4.9545,2.6942 10.8772,6.142 5.9226,3.4478 10.8837,6.2687 11.0245,6.2687 0.1407,0 2.335,-7.7784 4.8761,-17.2851 2.5411,-9.5069 4.7275,-17.1117 4.8585,-16.8997 0.131,0.212 2.2167,7.8086 4.6348,16.8812 2.4181,9.0727 4.5778,16.4926 4.7994,16.4889 0.2215,0 5.5598,-2.9869 11.8628,-6.6292 6.3031,-3.6422 11.527,-6.5554 11.6086,-6.4738 0.082,0.082 -3.786,5.7839 -8.5948,12.6716 l -10.2536,12.5232 -12.8604,0 -14.3707,0 z"
       style="color:#000000;clip-rule:nonzero;display:inline;overflow:visible;visibility:visible;opacity:1;isolation:auto;mix-blend-mode:normal;color-interpolation:sRGB;color-interpolation-filters:linearRGB;solid-color:#000000;solid-opacity:1;fill:#445500;fill-opacity:1;fill-rule:nonzero;stroke:#445500;stroke-width:0.40269372;stroke-linecap:round;stroke-linejoin:round;stroke-miterlimit:4;stroke-dasharray:none;stroke-dashoffset:0;stroke-opacity:1;color-rendering:auto;image-rendering:auto;shape-rendering:auto;text-rendering:auto;enable-background:accumulate" />
    <path
       inkscape:export-ydpi="90"
       inkscape:export-xdpi="90"
       sodipodi:nodetypes="scssscscscscccs"
       inkscape:connector-curvature="0"
       id="path4709-4-7-7-41-7-4-5-1-3"
       d="m 159.07041,662.00027 c -5.1071,-6.4793 -9.2366,-11.8376 -9.177,-11.9072 0.06,-0.069 4.9545,2.6942 10.8772,6.142 5.9226,3.4478 10.8837,6.2687 11.0245,6.2687 0.1407,0 2.335,-7.7784 4.8761,-17.2851 2.5411,-9.5069 4.7275,-17.1117 4.8585,-16.8997 0.131,0.212 2.2167,7.8086 4.6348,16.8812 2.4181,9.0727 4.5778,16.4926 4.7994,16.4889 0.2215,0 5.5598,-2.9869 11.8628,-6.6292 6.3031,-3.6422 11.527,-6.5554 11.6086,-6.4738 0.082,0.082 -3.786,5.7839 -8.5948,12.6716 l -10.2536,12.5232 -12.8604,0 -14.3707,0 z"
       style="color:#000000;clip-rule:nonzero;display:inline;overflow:visible;visibility:visible;opacity:1;isolation:auto;mix-blend-mode:normal;color-interpolation:sRGB;color-interpolation-filters:linearRGB;solid-color:#000000;solid-opacity:1;fill:#445500;fill-opacity:1;fill-rule:nonzero;stroke:#445500;stroke-width:0.40269372;stroke-linecap:round;stroke-linejoin:round;stroke-miterlimit:4;stroke-dasharray:none;stroke-dashoffset:0;stroke-opacity:1;color-rendering:auto;image-rendering:auto;shape-rendering:auto;text-rendering:auto;enable-background:accumulate" />
    <path
       inkscape:export-ydpi="90"
       inkscape:export-xdpi="90"
       sodipodi:nodetypes="scssscscscscccs"
       inkscape:connector-curvature="0"
       id="path4709-4-7-7-41-7-4-5-1-3-6"
       d="m 409.20175,662.00082 c -5.1071,-6.4793 -9.2366,-11.8376 -9.177,-11.9072 0.06,-0.069 4.9545,2.6942 10.8772,6.142 5.9226,3.4478 10.8837,6.2687 11.0245,6.2687 0.1407,0 2.335,-7.7784 4.8761,-17.2851 2.5411,-9.5069 4.7275,-17.1117 4.8585,-16.8997 0.131,0.212 2.2167,7.8086 4.6348,16.8812 2.4181,9.0727 4.5778,16.4926 4.7994,16.4889 0.2215,0 5.5598,-2.9869 11.8628,-6.6292 6.3031,-3.6422 11.527,-6.5554 11.6086,-6.4738 0.082,0.082 -3.786,5.7839 -8.5948,12.6716 l -10.2536,12.5232 -12.8604,0 -14.3707,0 z"
       style="color:#000000;clip-rule:nonzero;display:inline;overflow:visible;visibility:visible;opacity:1;isolation:auto;mix-blend-mode:normal;color-interpolation:sRGB;color-interpolation-filters:linearRGB;solid-color:#000000;solid-opacity:1;fill:#445500;fill-opacity:1;fill-rule:nonzero;stroke:#445500;stroke-width:0.40269372;stroke-linecap:round;stroke-linejoin:round;stroke-miterlimit:4;stroke-dasharray:none;stroke-dashoffset:0;stroke-opacity:1;color-rendering:auto;image-rendering:auto;shape-rendering:auto;text-rendering:auto;enable-background:accumulate" />
    <path
       inkscape:export-ydpi="90"
       inkscape:export-xdpi="90"
       sodipodi:nodetypes="scssscscscscccs"
       inkscape:connector-curvature="0"
       id="path4709-4-7-7-41-7-4-5-1-3-6-3"
       d="m 409.20167,401.39589 c -5.1071,-6.4793 -9.2366,-11.8376 -9.177,-11.9072 0.06,-0.069 4.9545,2.6942 10.8772,6.142 5.9226,3.4478 10.8837,6.2687 11.0245,6.2687 0.1407,0 2.335,-7.7784 4.8761,-17.2851 2.5411,-9.5069 4.7275,-17.1117 4.8585,-16.8997 0.131,0.212 2.2167,7.8086 4.6348,16.8812 2.4181,9.0727 4.5778,16.4926 4.7994,16.4889 0.2215,0 5.5598,-2.9869 11.8628,-6.6292 6.3031,-3.6422 11.527,-6.5554 11.6086,-6.4738 0.082,0.082 -3.786,5.7839 -8.5948,12.6716 l -10.2536,12.5232 -12.8604,0 -14.3707,0 z"
       style="color:#000000;clip-rule:nonzero;display:inline;overflow:visible;visibility:visible;opacity:1;isolation:auto;mix-blend-mode:normal;color-interpolation:sRGB;color-interpolation-filters:linearRGB;solid-color:#000000;solid-opacity:1;fill:#445500;fill-opacity:1;fill-rule:nonzero;stroke:#445500;stroke-width:0.40269372;stroke-linecap:round;stroke-linejoin:round;stroke-miterlimit:4;stroke-dasharray:none;stroke-dashoffset:0;stroke-opacity:1;color-rendering:auto;image-rendering:auto;shape-rendering:auto;text-rendering:auto;enable-background:accumulate" />
  </g>
</svg>
